<?xml version="1.0" encoding="UTF-8"?>
<svg id="Layer_2" data-name="Layer 2" xmlns="http://www.w3.org/2000/svg" viewBox="0 0 587.81 116">
  <defs>
    <style>
      .cls-1 {
        fill: #d71313;
      }

      .cls-1, .cls-2, .cls-3 {
        stroke-width: 0px;
      }

      .cls-2 {
        fill: #d9d9d9;
      }

      .cls-3 {
        fill: #00539b;
      }
    </style>
  </defs>
  <g id="Layer_1-2" data-name="Layer 1">
    <path class="cls-3" d="M117.14,90c-2.66,0-4.85-.82-6.57-2.46-1.71-1.7-2.57-3.9-2.57-6.61s.86-4.97,2.57-6.61c1.71-1.7,3.9-2.55,6.57-2.55s5.01.85,6.66,2.55c1.71,1.64,2.57,3.84,2.57,6.61s-.86,4.91-2.57,6.61c-1.65,1.64-3.87,2.46-6.66,2.46Z"/>
    <rect class="cls-3" x="133.14" y="21" width="16.94" height="67.96" rx="4" ry="4"/>
    <path class="cls-3" d="M154.28,25c0-2.21,1.79-4,4-4h48.72c2.21,0,4,1.79,4,4v6.54c0,2.21-1.79,4-4,4h-11.99c-2.21,0-4,1.79-4,4v45.42c0,2.21-1.79,4-4,4h-8.84c-2.21,0-4-1.79-4-4v-45.42c0-2.21-1.79-4-4-4h-11.89c-2.21,0-4-1.79-4-4v-6.54Z"/>
    <path class="cls-3" d="M0,23h19v63c0,2.21-1.79,4-4,4H4c-2.21,0-4-1.79-4-4V23Z"/>
    <path class="cls-3" d="M73,21h19v65c0,2.21-1.79,4-4,4h-11c-2.21,0-4-1.79-4-4V21Z"/>
    <path class="cls-1" d="M47.48,90L0,22.72h24.89l22.59,28.99c8.37-19.25,52.5-71.72,89.52-43.58-18.82-3.81-46.43,1.06-89.52,81.88Z"/>
    <path class="cls-1" d="M535,90V23.76h16.38v66.24h-16.38ZM543.83,73.07v-13.16h15.09c3.07,0,5.52-.61,7.36-1.84,1.9-1.23,3.25-2.85,4.05-4.88.86-2.02,1.29-4.26,1.29-6.72,0-3.19-.92-5.49-2.76-6.9-1.78-1.47-4.11-2.21-6.99-2.21h-18.03v-13.62h17.85c8.59,0,15.09,1.96,19.5,5.89,4.42,3.93,6.62,9.38,6.62,16.38,0,3.74-.61,7.27-1.84,10.58-1.17,3.31-2.94,6.19-5.34,8.65-2.39,2.45-5.37,4.38-8.92,5.79-3.5,1.35-7.57,2.02-12.24,2.02h-15.64ZM469.04,23.76h16.28v39.56c0,4.6.86,8.1,2.58,10.49,1.78,2.33,4.78,3.5,9.02,3.5s7.33-1.17,9.11-3.5c1.84-2.39,2.76-5.89,2.76-10.49V23.76h16.28v38.73c0,9.38-2.3,16.5-6.9,21.35-4.54,4.84-11.62,7.27-21.25,7.27s-16.84-2.42-21.25-7.27c-4.42-4.85-6.62-11.96-6.62-21.35V23.76ZM411.42,56.88c0,3.99.61,7.54,1.84,10.67,1.29,3.07,3.19,5.46,5.7,7.18,2.58,1.72,5.77,2.58,9.57,2.58s6.96-.86,9.48-2.58c2.51-1.72,4.39-4.11,5.61-7.18,1.29-3.13,1.93-6.69,1.93-10.67s-.64-7.51-1.93-10.58c-1.23-3.13-3.1-5.55-5.61-7.27-2.51-1.72-5.67-2.58-9.48-2.58s-6.99.86-9.57,2.58c-2.51,1.72-4.42,4.14-5.7,7.27-1.23,3.07-1.84,6.59-1.84,10.58ZM394.77,56.88c0-6.75,1.32-12.7,3.96-17.85s6.47-9.17,11.5-12.05c5.03-2.88,11.13-4.32,18.31-4.32s13.19,1.44,18.22,4.32c5.09,2.88,8.95,6.9,11.59,12.05s3.96,11.1,3.96,17.85-1.32,12.7-3.96,17.85-6.5,9.17-11.59,12.05c-5.03,2.88-11.1,4.32-18.22,4.32s-13.28-1.41-18.31-4.23c-5.03-2.88-8.86-6.9-11.5-12.05-2.64-5.15-3.96-11.13-3.96-17.94ZM373.98,90l-13.25-19.13,15.27-2.58,16.01,20.79v.92h-18.03ZM336.08,90V23.76h16.38v66.24h-16.38ZM344.91,74.27v-13.25h15.55c3.07,0,5.55-.64,7.45-1.93,1.96-1.35,3.4-3.07,4.32-5.15.92-2.09,1.38-4.32,1.38-6.72,0-3.37-.98-5.86-2.94-7.45-1.9-1.6-4.45-2.39-7.64-2.39h-18.12v-13.62h18.22c6.01,0,10.98.95,14.9,2.85,3.99,1.84,6.96,4.48,8.92,7.91,2.02,3.43,3.04,7.48,3.04,12.14,0,4.29-.8,8.16-2.39,11.59-1.59,3.37-3.77,6.26-6.53,8.65-2.7,2.39-5.8,4.23-9.29,5.52-3.5,1.23-7.15,1.84-10.95,1.84h-15.92ZM270.86,57.15c0-6.81,1.44-12.79,4.32-17.94,2.94-5.21,7.24-9.26,12.88-12.14,5.64-2.94,12.57-4.42,20.79-4.42,3.37,0,6.41.25,9.11.74s4.75,1.04,6.16,1.66v14.08h-1.01c-1.35-.74-3.25-1.35-5.7-1.84-2.45-.55-5.09-.83-7.91-.83-7.36,0-12.88,1.78-16.56,5.34-3.62,3.56-5.43,8.77-5.43,15.64,0,4.23.77,7.88,2.3,10.95,1.53,3.01,3.71,5.3,6.53,6.9,2.82,1.59,6.16,2.39,10.03,2.39,1.84,0,3.4-.19,4.69-.55,1.29-.37,2.42-1.01,3.4-1.93l-3.04,8.55v-27.6h15v31.28c-2.39,1.1-5.34,1.99-8.83,2.67-3.43.67-7.24,1.01-11.41,1.01-7.85,0-14.38-1.41-19.6-4.23-5.21-2.82-9.14-6.78-11.78-11.87-2.64-5.15-3.96-11.1-3.96-17.85Z"/>
    <rect class="cls-2" x="233" y="6" width="4" height="110"/>
  </g>
</svg>